<svg xmlns="http://www.w3.org/2000/svg" viewBox="0 0 400 500">
  <defs>
    <linearGradient id="bg" x1="0" y1="0" x2="1" y2="1">
      <stop offset="0%" stop-color="#164e63"/>
      <stop offset="50%" stop-color="#1e1b4b"/>
      <stop offset="100%" stop-color="#4a044e"/>
    </linearGradient>
    <linearGradient id="body" x1="0" y1="0" x2="1" y2="1">
      <stop offset="0%" stop-color="#22d3ee"/>
      <stop offset="50%" stop-color="#818cf8"/>
      <stop offset="100%" stop-color="#e879f9"/>
    </linearGradient>
  </defs>
  <rect width="400" height="500" fill="url(#bg)"/>
  <g opacity="0.12" fill="none" stroke="#94a3b8" stroke-width="1">
    <path d="M0 60 H400 M0 120 H400 M0 180 H400 M0 240 H400 M0 300 H400 M0 360 H400 M0 420 H400"/>
    <path d="M60 0 V500 M120 0 V500 M180 0 V500 M240 0 V500 M300 0 V500 M360 0 V500"/>
  </g>
  <text x="52" y="105" font-family="monospace" font-size="34" fill="#22d3ee" opacity="0.5">&lt;/&gt;</text>
  <text x="300" y="85" font-family="monospace" font-size="26" fill="#e879f9" opacity="0.45">{ }</text>
  <!-- silhouette -->
  <circle cx="200" cy="205" r="78" fill="url(#body)" opacity="0.9"/>
  <path d="M60 500 C60 380 130 330 200 330 C270 330 340 380 340 500 Z" fill="url(#body)" opacity="0.9"/>
  <circle cx="200" cy="205" r="78" fill="#0b1120" opacity="0.25"/>
  <path d="M60 500 C60 380 130 330 200 330 C270 330 340 380 340 500 Z" fill="#0b1120" opacity="0.25"/>
  <text x="200" y="230" text-anchor="middle" font-family="monospace" font-size="58" font-weight="bold" fill="#e6ecf7">SA</text>
  <text x="200" y="465" text-anchor="middle" font-family="monospace" font-size="15" fill="#e6ecf7" opacity="0.75">your photo here</text>
</svg>
